<svg width="23" height="21" viewBox="0 0 23 21" fill="none" xmlns="http://www.w3.org/2000/svg">
<path fill-rule="evenodd" clip-rule="evenodd" d="M11.069 0C4.99113 0 0.0690002 4.82064 0.0690002 10.7666C0.0690002 15.5242 3.22087 19.5592 7.59007 20.9814C8.14007 21.0828 8.34173 20.7497 8.34173 20.4636C8.34173 20.208 8.33293 19.5309 8.32853 18.633C5.26833 19.2826 4.623 17.1891 4.623 17.1891C4.12287 15.9464 3.39907 15.614 3.39907 15.614C2.4032 14.9464 3.47607 14.9601 3.47607 14.9601C4.5812 15.0347 5.16127 16.0695 5.16127 16.0695C6.14173 17.7155 7.736 17.2397 8.3652 16.9653C8.46347 16.2687 8.74653 15.7943 9.06187 15.5257C6.6184 15.2563 4.051 14.3308 4.051 10.2054C4.051 9.0301 4.47707 8.06916 5.18327 7.31605C5.05933 7.04449 4.68827 5.94958 5.27933 4.46653C5.27933 4.46653 6.2004 4.17832 8.30433 5.57013C9.18433 5.33116 10.1193 5.2124 11.0543 5.20733C11.9893 5.2124 12.9243 5.33116 13.8043 5.57013C15.8943 4.17832 16.8154 4.46653 16.8154 4.46653C17.4072 5.94958 17.0354 7.04449 16.9254 7.31605C17.6272 8.06916 18.0533 9.0301 18.0533 10.2054C18.0533 14.341 15.4815 15.2512 13.0343 15.5163C13.4193 15.8392 13.7772 16.4997 13.7772 17.5084C13.7772 18.9495 13.7625 20.1066 13.7625 20.4564C13.7625 20.7388 13.9554 21.0755 14.5193 20.9676C18.9201 19.5548 22.069 15.517 22.069 10.7666C22.069 4.82136 17.1439 0 11.069 0Z" fill="black"/>
</svg>
