<svg width="24" height="23" viewBox="0 0 24 23" fill="none" xmlns="http://www.w3.org/2000/svg">
<mask id="mask0" mask-type="alpha" maskUnits="userSpaceOnUse" x="0" y="0" width="24" height="23">
<path d="M0.98053 0H23.069V22.0353H0.98053V0Z" fill="white"/>
</mask>
<g mask="url(#mask0)">
<path fill-rule="evenodd" clip-rule="evenodd" d="M20.9982 15.1492C20.9982 17.8074 18.8308 19.969 16.1667 19.969H7.88285C5.21875 19.969 3.0513 17.8067 3.0513 15.1492V6.88609C3.0513 4.22788 5.21875 2.0656 7.88285 2.0656H16.1667C18.8308 2.0656 20.9982 4.22788 20.9982 6.88609V15.1492ZM16.1667 0H7.88285C4.07119 0 0.98053 3.08328 0.98053 6.88535V15.1492C0.98053 18.9513 4.07119 22.0346 7.88285 22.0346H16.1667C19.9783 22.0346 23.069 18.9513 23.069 15.1492V6.88609C23.069 3.08328 19.9783 0 16.1667 0Z" fill="black"/>
</g>
<path fill-rule="evenodd" clip-rule="evenodd" d="M12.0251 14.4608C10.1226 14.4608 8.5736 12.9154 8.5736 11.0181C8.5736 9.11853 10.1226 7.57467 12.0251 7.57467C13.9269 7.57467 15.4759 9.11853 15.4759 11.0181C15.4759 12.9154 13.9269 14.4608 12.0251 14.4608ZM12.0251 5.50907C8.97506 5.50907 6.50283 7.9754 6.50283 11.0181C6.50283 14.06 8.97506 16.5264 12.0251 16.5264C15.0745 16.5264 17.5467 14.06 17.5467 11.0181C17.5467 7.9754 15.0745 5.50907 12.0251 5.50907ZM17.9614 4.36151C18.3673 4.36151 18.6972 4.69065 18.6972 5.0958C18.6972 5.50169 18.3673 5.83009 17.9607 5.83009C17.5548 5.83009 17.2249 5.50169 17.2249 5.0958C17.2249 4.68991 17.5548 4.36151 17.9607 4.36151" fill="black"/>
</svg>
