<svg width="23" height="20" viewBox="0 0 23 20" fill="none" xmlns="http://www.w3.org/2000/svg">
<mask id="mask0" mask-type="alpha" maskUnits="userSpaceOnUse" x="0" y="6" width="5" height="14">
<path d="M0 6.09131H4.30611V19.8524H0V6.09131Z" fill="white"/>
</mask>
<g mask="url(#mask0)">
<path fill-rule="evenodd" clip-rule="evenodd" d="M0.717316 19.8524H3.58879C3.98509 19.8524 4.30611 19.5366 4.30611 19.1462V6.79682C4.30611 6.40716 3.98509 6.09131 3.58879 6.09131H0.717316C0.321021 6.09131 0 6.40716 0 6.79682V19.1462C0 19.5366 0.321021 19.8524 0.717316 19.8524Z" fill="black"/>
</g>
<mask id="mask1" mask-type="alpha" maskUnits="userSpaceOnUse" x="0" y="0" width="5" height="4">
<path d="M0 0H4.30611V3.92015H0V0Z" fill="white"/>
</mask>
<g mask="url(#mask1)">
<path fill-rule="evenodd" clip-rule="evenodd" d="M0.717316 3.92015H3.58879C3.98509 3.92015 4.30611 3.60429 4.30611 3.21464V0.705508C4.30611 0.315855 3.98509 0 3.58879 0H0.717316C0.321021 0 0 0.315855 0 0.705508V3.21464C0 3.60429 0.321021 3.92015 0.717316 3.92015Z" fill="black"/>
</g>
<mask id="mask2" mask-type="alpha" maskUnits="userSpaceOnUse" x="7" y="5" width="16" height="15">
<path d="M7.25433 5.72968H22.0899V19.8524H7.25433V5.72968Z" fill="white"/>
</mask>
<g mask="url(#mask2)">
<path fill-rule="evenodd" clip-rule="evenodd" d="M21.0095 7.5237C20.6059 7.00121 20.0103 6.57171 19.2236 6.23519C18.4369 5.89793 17.5683 5.72968 16.6193 5.72968C14.6895 5.72968 13.0549 6.45437 11.7147 7.90376C11.449 8.19157 11.2542 8.12885 11.2542 7.73919V6.79679C11.2542 6.40714 10.9332 6.09129 10.5369 6.09129H7.97165C7.57535 6.09202 7.25433 6.40788 7.25433 6.79679V19.1461C7.25433 19.5358 7.57535 19.8516 7.97165 19.8516H10.8439C11.2402 19.8516 11.5612 19.5358 11.5612 19.1461V14.8511C11.5612 13.0622 11.6704 11.8357 11.8903 11.1723C12.1102 10.5088 12.5161 9.97675 13.1087 9.57381C13.7013 9.17235 14.3707 8.97088 15.116 8.97088C15.699 8.97088 16.1972 9.1111 16.6112 9.39301C17.0244 9.67491 17.3233 10.069 17.5078 10.5767C17.6916 11.0845 17.7831 12.2025 17.7831 13.9316V19.1461C17.7831 19.5358 18.1041 19.8516 18.5004 19.8516H21.3726C21.7689 19.8516 22.0899 19.5358 22.0899 19.1461V12.153C22.0899 10.9169 22.0102 9.96715 21.8523 9.30371C21.6944 8.63953 21.4132 8.04693 21.0095 7.5237Z" fill="black"/>
</g>
</svg>
