<svg width="23" height="18" viewBox="0 0 23 18" fill="none" xmlns="http://www.w3.org/2000/svg">
<path fill-rule="evenodd" clip-rule="evenodd" d="M22.069 2.13075C21.2506 2.49225 20.3794 2.7315 19.4701 2.8485C20.4051 2.286 21.1186 1.4025 21.4545 0.3375C20.5825 0.861 19.6204 1.23075 18.5945 1.437C17.7665 0.54975 16.5866 0 15.2996 0C12.8026 0 10.7925 2.04075 10.7925 4.54275C10.7925 4.90275 10.8226 5.24925 10.8974 5.5785C7.14713 5.39475 3.82953 3.585 1.60093 0.828C1.21227 1.5075 0.983467 2.286 0.983467 3.123C0.983467 4.6965 1.78793 6.09075 2.98693 6.8985C2.2624 6.88425 1.55107 6.67275 0.949 6.339V6.3885C0.949 8.59575 2.51247 10.4288 4.56287 10.851C4.19547 10.9523 3.79507 11.001 3.38 11.001C3.09107 11.001 2.79993 10.9845 2.5264 10.923C3.11087 12.7215 4.76893 14.0445 6.74087 14.0873C5.206 15.2955 3.25753 16.0245 1.14847 16.0245C0.778134 16.0245 0.423934 16.0072 0.0690002 15.9615C2.0666 17.259 4.43453 18 6.988 18C15.2879 18 19.825 11.0775 19.825 5.076C19.825 4.875 19.8177 4.6815 19.8089 4.48875C20.7035 3.849 21.4559 3.05025 22.069 2.13075Z" fill="black"/>
</svg>
