<svg width="224" height="227" viewBox="0 0 224 227" fill="none" xmlns="http://www.w3.org/2000/svg">
<path d="M56 188.008C60.6667 189.008 70.4 188.808 72 180.008C74 169.008 78 137.008 72 125.008C66 113.008 64 120.008 60 114.008" stroke="black"/>
<path d="M56 187.008C56.3333 189.008 55.6 193.208 50 194.008C43 195.008 41 197.008 34 202.008C27 207.008 22 213.008 17 215.008C13 216.608 4.66667 223.008 1 226.008" stroke="black"/>
<path d="M105 135C108.126 137.125 121 143 125 144.5L126.5 145C127.327 145.827 130.806 146.934 132 147C134.979 147.165 138.016 147 141 147" stroke="black" stroke-linecap="round"/>
<path d="M109 92.5C107.4 91.7 108.5 87.8333 110.5 87.5C112.5 87.1667 117.5 89 117 92C116.5 94.9999 113.5 94.75 109 92.5Z" fill="black"/>
<path d="M105.75 135.758C107.109 137.881 126.5 164.5 141.5 147.5" stroke="black" stroke-linecap="round"/>
<path d="M105.5 135.5C106.308 135.679 115.5 139.258 128 139.258C129.753 139.258 130.765 139.928 131.861 141.147C132.181 141.502 133.075 143.379 133.5 143.5C134.149 143.685 134.576 142.758 135.25 142.758C136.46 142.758 137.381 144.027 138.139 144.869C138.642 145.428 140.654 146.812 141.5 147" stroke="black" stroke-linecap="round"/>
<path d="M131.75 129.758C131.417 125.426 126.891 126.258 123.75 126.258" stroke="black" stroke-linecap="round"/>
<path d="M161.5 108.5C159.5 110.5 156 112.5 152 108.5C150.777 107.277 147.5 104.5 149 105.5C149.5 104 152.5 102.5 156.5 104C158.167 104.833 161.4 106.9 161 108.5M123 96.5079C119.167 96.0079 110.4 94.2079 106 91.0079C101.6 87.8079 101.5 88.3413 102 89.0079C105 87.8413 112 86.2079 116 89.0079C120 91.8079 122.333 95.1746 123 96.5079Z" stroke="black"/>
<path d="M132 42.0079C132 45.7606 131 48.8872 131 52.5079C131 55.9022 131.383 59.181 128.778 61.7857C126.873 63.691 124.871 64.4019 122.556 65.0635C121.366 65.4034 122 70.886 122 72.0079C122 74.4869 121.504 76.4048 119.5 78.0079C118.478 78.8256 114.259 80.2097 114 78.0079C113.821 76.4862 112.316 75.8822 112.056 74.4524C111.931 73.7681 112 69.9765 112 72.5079C112 75.7475 112.68 77.8013 116.5 76.9524C118.656 76.4732 118.69 71.2242 117 70.2302C115.574 69.3911 113 67.3516 113 65.5079C113 62.313 112.446 61.0079 116 61.0079C118.216 61.0079 117.077 61.4696 116.222 60.7857C115.526 60.2287 114.859 59.4223 114.222 58.7857C113.549 58.1128 112.821 57.5616 113.056 56.5079C113.504 54.4912 113.243 55.4765 111.5 54.5079C110.105 53.7328 105.111 54.1144 105 56.0079C104.872 58.1821 105.684 60.7283 103.444 62.0079C99.09 64.4962 105.244 61.3577 105.944 64.5079C106.51 67.0546 104 67.6156 104 70.0079C104 71.1189 104.186 72.4202 103.944 73.5079C103.578 75.157 101.897 75.3861 101 76.5079C99.305 78.6267 96.5441 78.1493 94 78.0079C92.4905 77.9241 92 76.8733 92 75.5079C92 73.5051 92.4789 75.6582 93.5 76.4524C94.9754 77.5999 99.7323 77.2835 100 75.0079C100.234 73.0176 102.362 69.4806 100.444 67.5635C99.5341 66.6531 97.9975 67.561 97.2222 66.7857C96.5898 66.1533 97 63.8449 97 63.0079C97 61.2612 96.7467 61.0079 95 61.0079C93.8857 61.0079 92.1706 60.5576 92 62.0079C91.7628 64.0245 90.0482 67.7694 88.5 69.0079C86.4713 70.6309 86.3064 72.8396 85.2222 75.0079C84.2072 77.038 82 79.178 82 81.5079C82 83.2152 81.1104 89.1822 82.5556 90.0079C85.5841 91.7385 86.3878 91.9668 84.7778 95.0079C83.417 97.5783 82.7076 99.7815 81.9444 102.452C81.6945 103.327 78.7924 103.299 78.2222 102.786C77.589 102.216 78 99.7979 78 99.0079C78 97.9609 78.4572 96.0937 77 96.0079C75.9254 95.9447 75 96.8105 75 96.0079" stroke="black" stroke-linecap="round"/>
<path d="M74 98.0079C68.9827 99.8894 72.9677 102.485 70.2222 105.23C68.324 107.128 66.7604 106.618 64.5556 107.786C62.7797 108.726 63.1131 109.085 63 111.008C62.9117 112.508 61.052 111.946 60 112.008C57.9538 112.128 58 117.449 58 119.008" stroke="black" stroke-linecap="round"/>
<path d="M132 56.0079C134.907 58.8032 138.629 60.9732 142.444 62.0635C143.586 62.3898 144.204 64.6924 143.389 65.5079C141.676 67.2213 139.427 67.0079 137.222 67.0079C135.963 67.0079 132.554 67.8984 133.444 67.0079C134.456 65.9963 137.144 66.0079 138.5 66.0079C140.163 66.0079 145.547 66.8937 146.778 65.7857C148.45 64.2805 146.444 63.7196 146.444 63.0079C146.444 62.9877 150.419 60.6276 148.444 60.0635C147.35 59.7509 146.658 59.0079 145.5 59.0079C143.55 59.0079 142.828 57.1095 141 57.0079C139.812 56.942 135.335 54.6554 135.056 53.3968C134.383 50.3708 132.333 47.0079 137 47.0079" stroke="black" stroke-linecap="round"/>
<path d="M141 47.0079C140.258 47.5332 135.398 52.5842 139 53.0079C140.554 53.1907 143.165 55.0756 144.778 53.7857C146.064 52.7567 146.775 51.0393 147.778 49.7857C149.525 47.6017 144.863 48.0079 144 48.0079" stroke="black" stroke-linecap="round"/>
<path d="M149 44.0079C150.143 45.0842 151.844 47.0079 153.5 47.0079C155.418 47.0079 155.693 49.0545 156.5 50.5079C158.466 54.0473 154 53.9967 154 57.5079C154 58.9604 153.568 60.4718 155 61.2302C156.338 61.9387 158.769 61.4234 159.778 62.2302C160.924 63.1468 162.176 62.7391 163.222 63.7857C164.546 65.1097 164.514 66.4155 165.222 68.0079C165.721 69.1304 169.09 75.1966 166.444 75.9524C164.832 76.4132 164.165 76.0517 163 77.5079C162.453 78.1913 161.714 77.8523 161 78.2302C160.242 78.6314 160.134 79.5011 159.5 80.0079C155.642 83.0943 164.484 84.0079 166 84.0079C169.628 84.0079 173 83.27 173 88.0079" stroke="black" stroke-linecap="round"/>
<path d="M171 85.0079C170.102 87.9269 170 90.5643 170 93.5635C170 96.2383 167.673 96.4007 167.056 98.5635C166.564 100.283 167 102.719 167 104.508C167 106.876 165.573 106.753 165.056 108.563C164.601 110.153 163.876 111.919 163 113.452C161.99 115.22 162 116.316 162 118.508C162 122.508 162 126.508 162 130.508C162 134.006 161.208 137.086 158.778 139.786C156.626 142.177 155.821 148.023 153 149.786C151.929 150.455 151.196 152.148 150.222 153.23C148.552 155.086 146.753 156.699 145 158.452C141.524 161.928 139.6 163.475 135 165.008" stroke="black" stroke-linecap="round"/>
<path d="M143 165.008C143 168.391 143.728 171.008 147.5 171.008C150.463 171.008 151 168.757 151 166.008" stroke="black" stroke-linecap="round"/>
<path d="M157 10.0079C157 7.08959 157.879 4.22545 155 2.78571C153.292 1.9318 151.889 2.00793 150 2.00793C148.343 2.00793 146.654 1.91067 145 2.00793C144.367 2.04515 141.24 3.00793 143.5 3.00793C144.11 3.00793 145.278 2.78055 145.778 3.23016C146.003 3.43301 146.819 4.78038 146.389 4.95238C144.591 5.67172 141.451 5.00793 139.5 5.00793C137.603 5.00793 134.192 8.51328 132.778 9.78571C129.992 12.2926 131.076 6.52527 131 5.00793C130.91 3.20523 128.183 3.31148 127 2.78571C125.602 2.16451 123.729 1.06821 122.222 1.00793C119.451 0.897067 118.841 1.96747 116.5 3.00793C114.327 3.97375 112.026 5.61718 110.556 7.50793C109.34 9.07036 109.572 10.6032 107.5 11.0635C106.23 11.3456 103.701 11.7986 102.611 12.4524C101.55 13.0893 104.069 10.244 104 9.00793C103.877 6.78701 101.483 7.0467 100.222 5.78571C99.3579 4.92138 98.4104 3.0909 97 3.00793C95.3489 2.91081 94.6583 2.00793 93 2.00793C91.1667 2.00793 89.3333 2.00793 87.5 2.00793C85.0864 2.00793 84.6426 2.4513 83.5 4.50793C82.8538 5.67106 80.5397 9.10724 81.0555 10.3968C81.2978 11.0024 84.0125 8.7486 84.4444 8.56349C85.365 8.16896 84.3391 10.8405 83 11.0079C81.9355 11.141 82.1888 11.5971 81.9444 12.4524C81.7104 13.2715 80.7552 12.8037 80.2222 13.2302C78.8692 14.3126 77.5903 15.435 76 16.2302C74.5567 16.9518 72.8668 16.6967 71.7778 17.7857C70.6169 18.9466 69.2983 20.071 68.5 21.5079C66.5948 24.9373 62.6751 22.0079 60 22.0079C58.2259 22.0079 56.3634 21.6446 55 23.0079C53.9229 24.085 53.494 26.2127 52.5 27.0079C51.8664 27.5148 51.758 28.3844 51 28.7857C50.2156 29.201 49.3156 29.0548 48.5 29.5079C46.8805 30.4076 45.0443 30.65 43.5 31.5079C40.0895 33.4026 36 35.5158 36 40.0079C36 41.6949 37.0938 42.3202 37 44.0079C36.9306 45.257 35.6762 47.8873 34.7778 48.7857C32.2953 51.2682 32.1641 54.8438 29.5 57.5079C28.6231 58.3848 26.6428 60.6149 26 59.0079C25.7117 58.2871 25.0416 57.798 25 57.0079C24.9801 56.6297 25.1551 53.4812 24.4444 53.7857C22.9258 54.4365 22.6587 58.0635 23.0555 59.4524C23.4733 60.9145 26.822 59.3699 27.7778 60.2302C29.0359 61.3625 29.0903 63.4724 29 65.0079C28.914 66.4698 26.2129 67.3385 25.2222 68.2302C23.9313 69.3919 24 70.3185 24 72.0079C24 74.7553 21.7763 74.429 19.5555 75.0635C17.9191 75.531 17.6831 77.3293 19.9444 76.9524C21.9594 76.6165 22.9028 72.8058 24.5 71.5635C26.1866 70.2517 27 70.2244 27 72.0079C27 74.6168 28.9671 74.2035 29.7778 76.2302C30.2548 77.4226 31.7993 80.5088 30.7778 81.7857C29.8352 82.9639 28.1657 83.1819 27.2222 84.2302C26.4858 85.0484 27 87.9472 27 89.0079C27 90.9918 26 92.4817 26 94.5079C26 96.4387 26.37 97.4791 28.5 97.9524C31.0675 98.5229 29.0246 99.0079 27.5 99.0079C23.9138 99.0079 22 100.251 22 104.008C22 105.437 21.5708 107.705 22.2222 109.008C23.0886 110.741 25.223 113.008 21.5 113.008C19.5137 113.008 18.5173 112.677 17.5 114.508C17.1497 115.139 16.5361 115.665 16.2222 116.23C15.4676 117.588 19.8177 116.081 20 116.008" stroke="black" stroke-linecap="round"/>
<path d="M31 99.0079C32.9148 100.923 37 103.118 37 106.008C37 107.131 36.5509 108.827 38 109.008C39.8097 109.234 38.2555 111.043 39.4445 111.786C42.026 113.399 41.926 118.801 38 119.008C35.7623 119.126 30.6821 119.688 30.0556 122.508C29.7589 123.843 29.7658 126.093 30.0556 127.397C30.1675 127.901 32.892 128.979 33.5 129.452C34.0355 129.869 36.7286 130.448 34.5 129.952C32.7408 129.561 32 128.716 32 127.008C32 123.729 31.3521 119.008 35.5 119.008C38.8577 119.008 38.828 122.084 39 125.008C39.1447 127.468 44.6211 126.074 45.7778 127.23C46.514 127.966 45.9645 130.862 46 131.786C46.0574 133.278 46.9306 134.171 47.7778 135.23C49.2241 137.038 52.3876 138.899 53.5 141V145C53.0748 146.913 47.6721 151.983 45.5 151.5" stroke="black" stroke-linecap="round"/>
<path d="M48 133.118C49.0028 132.197 53.8819 130.481 54.1631 129.52C54.6307 127.923 54.7574 129.183 54 128C53.3801 127.032 56.3478 126.99 59.4622 127.497C59.5599 127.831 62.0551 129.044 62.515 129.071C63.1288 129.106 66.5469 128.672 66.5469 129.577C66.5469 130.038 63.3074 130.826 62.7454 131.319C61.5522 132.367 60.2938 131.849 58.8862 132.612C56.6032 133.85 60.2315 133.118 61.4782 133.118C62.9324 133.118 64.6558 133.453 65.6253 134.636C66.9727 136.279 67.6989 131.873 67.6989 131.094C67.6989 130.358 67.6152 132.106 69.254 132.106C71.5029 132.106 71.4731 132.711 69.7724 131.881C66.424 130.247 66.6621 126.02 66.6621 123" stroke="black" stroke-linecap="round"/>
<path d="M71 133.008C71.5432 134.706 72 136.229 72 138.008" stroke="black" stroke-linecap="round"/>
<path d="M145 167.008C148.212 167.779 150.807 164.96 147 164.008" stroke="black" stroke-linecap="round"/>
<path d="M144 164.008C149.396 164.008 151.163 163.736 154 159.008" stroke="black" stroke-linecap="round"/>
<path d="M159 12.0079C154.488 13.6487 161.837 12.5841 163.5 13.5079C165.002 14.3426 167.277 15.9122 169 16.0079C172.349 16.194 170.752 13.0386 172.556 12.0079C174.346 10.985 175.96 10.8946 178 11.0079C179.541 11.0935 182.249 12.1375 183 13.4524C183.134 13.6872 185.986 16.5635 185.778 16.5635C183.579 16.5635 180.506 16.1227 178.556 15.0079C177.722 14.5317 177.817 14.5584 178.556 15.5079C179.537 16.7702 180.643 17.7925 180.944 19.4524C181.348 21.6704 181.519 21.786 183 23.4524C183.548 24.0684 183.735 25.718 184.556 25.9524C185.431 26.2027 186.594 26.0079 187.5 26.0079C191.439 26.0079 192.796 29.5357 193 33.0079C193.027 33.4634 193.527 34.0079 193.389 34.0079C192.368 34.0079 192.44 33.8082 193 34.5079C193.985 35.7393 195.062 36.7414 196.222 37.7857C198.034 39.4162 199 38.725 199 41.5079C199 42.8421 199.067 42.5281 198.5 41.5079C197.772 40.1982 197.577 40.0079 196 40.0079C191.102 40.0079 189.131 41.6682 188.056 46.5079C187.563 48.7225 191.678 51.55 193.5 53.0079C194.137 53.5177 193.719 54.282 194.222 54.7857C194.911 55.4748 195.918 54.6135 196 56.0079C196.136 58.3199 194.569 59.0079 197.5 59.0079C199.57 59.0079 198.96 61.4623 199.778 63.0079C200.786 64.9123 201.984 65.0079 204 65.0079C205.178 65.0079 208.567 66.0079 207.389 66.0079C205.948 66.0079 203.32 68.2424 202.222 69.2302C201.232 70.1212 200 71.1344 200 72.5079C200 75.3237 200.944 75.0079 203.5 75.0079C205.226 75.0079 206.631 74.7559 207.778 76.2302C208.549 77.2223 204.014 77.0079 203.5 77.0079C202.079 77.0079 200.09 78.4776 200 80.0079C199.927 81.2558 199.43 84.7961 200.222 85.7857C201.646 87.5657 200.906 88.2132 199.556 89.5635C197.854 91.2646 199.914 92.554 200 94.0079C200.126 96.1557 199.487 97.5531 198.944 99.4524C198.439 101.221 196 98.913 196 102.008C196 103.72 196.47 106.008 198.5 106.008C199.328 106.008 200.174 105.956 201 106.008C202.619 106.109 198.782 108.527 198.444 108.786C197.415 109.573 196.601 110.65 195.556 111.397C194.8 111.936 193.374 109.147 193.056 108.563C192.387 107.339 192.287 103.569 190.556 104.063C189.467 104.375 190 108.076 190 109.008C190 111.872 190.057 111.381 192.444 112.063C194.122 112.543 189.703 114.008 189 114.008C186.309 114.008 185.297 114.397 184.222 117.008C183.324 119.189 187.723 116.787 187.944 117.563C188.456 119.355 187 120.28 187 122.008C187 123.86 188 124.925 188 126.508C188 129.176 186.579 129.534 185 131.508C184.391 132.269 181.004 132.411 180.222 131.786C178.148 130.127 178.338 131.738 177.944 133.508C177.537 135.34 174.282 135.735 175.778 137.23C177.737 139.19 174.216 136.223 173.5 136.063C171.521 135.624 171.379 138.805 173 139.008C175.679 139.343 172.281 142.331 171.556 142.952C170.031 144.259 170 146.167 170 148.008C170 149.008 170 150.008 170 151.008C170 151.86 169.398 154.166 170 153.563C173.064 150.5 172.099 144.158 167 145.008C164.827 145.37 164 149.672 164 151.508C164 152.414 164.195 153.576 163.944 154.452C163.623 155.577 162.898 154.193 162.444 154.063C157.052 152.523 166.464 160.648 159.556 157.508C157.906 156.758 155.802 156.902 154 157.008C152.185 157.115 153.596 160.21 152 161.008" stroke="black" stroke-linecap="round"/>
<path d="M135 165.008V172.008C140.333 174.675 152.6 180.208 159 181.008C167 182.008 192 189.008 202 192.008C212 195.008 224 201.008 223 214.008" stroke="black"/>
<path d="M55 194.008C59 237.008 174 226.008 145.5 177.508" stroke="black"/>
<path d="M156.5 104.5C157.5 105.5 156 108 154 109L153.5 109.5C152 108.833 149.1 107 149.5 105C150 102.5 155.5 103.5 156.5 104.5Z" fill="black"/>
<path d="M154 92.8889C163 88.3889 169 94.3889 169 94.3889M134 85.8889C130.5 81.8889 124 75.8889 117 73.8889C110 71.8889 107.5 73.8889 106 73.8889" stroke="black" stroke-width="2" stroke-linecap="round"/>
</svg>
