<svg width="502" height="509" viewBox="0 0 502 509" fill="none" xmlns="http://www.w3.org/2000/svg">
<path d="M124.927 422.37C135.442 424.623 157.373 424.172 160.979 404.344C165.485 379.559 174.498 307.456 160.979 280.417C147.459 253.378 142.953 269.151 133.94 255.632" stroke="black"/>
<path d="M124.927 420.117C125.678 424.623 124.026 434.087 111.408 435.889C95.6352 438.142 91.1287 442.649 75.3562 453.915C59.5837 465.181 48.3176 478.7 37.0515 483.207C28.0386 486.812 9.2618 501.232 1 507.992" stroke="black"/>
<path d="M235.335 302.931C242.377 307.72 271.386 320.957 280.399 324.337L283.779 325.463C285.643 327.328 293.482 329.82 296.172 329.97C302.884 330.343 309.726 329.97 316.451 329.97" stroke="black" stroke-linecap="round"/>
<path d="M244.348 207.169C240.743 205.367 243.221 196.654 247.728 195.903C252.234 195.152 263.5 199.283 262.374 206.043C261.247 212.802 254.487 212.239 244.348 207.169Z" fill="black"/>
<path d="M237.025 304.639C240.086 309.423 283.779 369.401 317.577 331.097" stroke="black" stroke-linecap="round"/>
<path d="M236.461 304.058C238.281 304.462 258.994 312.525 287.159 312.525C291.108 312.525 293.388 314.036 295.859 316.781C296.579 317.582 298.595 321.81 299.552 322.084C301.014 322.502 301.976 320.412 303.495 320.412C306.221 320.412 308.296 323.271 310.004 325.168C311.137 326.428 315.671 329.546 317.577 329.97" stroke="black" stroke-linecap="round"/>
<path d="M295.608 291.12C294.857 281.359 284.659 283.233 277.583 283.233" stroke="black" stroke-linecap="round"/>
<path d="M362.642 243.221C358.135 247.727 350.249 252.234 341.236 243.221C338.481 240.466 331.097 234.208 334.477 236.461C335.603 233.082 342.363 229.702 351.376 233.082C355.131 234.959 362.417 239.616 361.515 243.221M275.893 216.2C267.256 215.074 247.502 211.018 237.588 203.808C227.674 196.597 227.449 197.799 228.575 199.301C235.335 196.672 251.108 192.992 260.12 199.301C269.133 205.61 274.391 213.196 275.893 216.2Z" stroke="black"/>
<path d="M296.172 93.3998C296.172 101.855 293.919 108.9 293.919 117.059C293.919 124.707 294.78 132.094 288.911 137.963C284.618 142.256 280.109 143.858 274.891 145.349C272.21 146.115 273.64 158.468 273.64 160.996C273.64 166.582 272.522 170.904 268.007 174.516C265.703 176.358 256.197 179.477 255.614 174.516C255.21 171.087 251.818 169.726 251.233 166.504C250.952 164.962 251.107 156.419 251.107 162.123C251.107 169.422 252.639 174.05 261.247 172.137C266.106 171.058 266.181 159.231 262.373 156.991C259.159 155.1 253.361 150.505 253.361 146.35C253.361 139.152 252.113 136.211 260.12 136.211C265.114 136.211 262.547 137.251 260.621 135.71C259.052 134.455 257.549 132.638 256.115 131.204C254.598 129.688 252.958 128.446 253.486 126.072C254.496 121.527 253.909 123.747 249.981 121.565C246.837 119.819 235.586 120.678 235.335 124.945C235.047 129.844 236.876 135.581 231.83 138.464C222.018 144.071 235.886 136.999 237.463 144.097C238.738 149.835 233.082 151.1 233.082 156.49C233.082 158.993 233.501 161.925 232.956 164.376C232.131 168.092 228.344 168.608 226.322 171.136C222.503 175.91 216.282 174.834 210.549 174.516C207.148 174.327 206.043 171.959 206.043 168.883C206.043 164.37 207.122 169.221 209.423 171.011C212.747 173.596 223.466 172.883 224.069 167.756C224.596 163.271 229.39 155.302 225.07 150.982C223.019 148.931 219.557 150.976 217.81 149.23C216.385 147.805 217.309 142.603 217.309 140.717C217.309 136.782 216.738 136.211 212.803 136.211C210.292 136.211 206.427 135.196 206.043 138.464C205.508 143.008 201.645 151.446 198.157 154.237C193.586 157.894 193.214 162.87 190.771 167.756C188.484 172.33 183.511 177.152 183.511 182.402C183.511 186.249 181.506 199.694 184.763 201.554C191.586 205.454 193.397 205.968 189.77 212.82C186.704 218.612 185.105 223.576 183.386 229.594C182.822 231.566 176.283 231.502 174.999 230.345C173.572 229.061 174.498 223.613 174.498 221.833C174.498 219.474 175.528 215.267 172.245 215.074C169.823 214.931 167.738 216.882 167.738 215.074" stroke="black" stroke-linecap="round"/>
<path d="M165.485 219.58C154.18 223.819 163.159 229.667 156.973 235.853C152.696 240.13 149.173 238.981 144.205 241.612C140.203 243.73 140.955 244.538 140.7 248.872C140.501 252.252 136.31 250.986 133.94 251.125C129.33 251.396 129.434 263.384 129.434 266.898" stroke="black" stroke-linecap="round"/>
<path d="M296.172 124.945C302.722 131.243 311.107 136.133 319.705 138.589C322.278 139.325 323.671 144.513 321.833 146.35C317.973 150.211 312.907 149.73 307.938 149.73C305.101 149.73 297.42 151.737 299.426 149.73C301.706 147.451 307.761 147.477 310.818 147.477C314.564 147.477 326.695 149.473 329.469 146.976C333.238 143.585 328.718 142.321 328.718 140.717C328.718 140.672 337.673 135.354 333.225 134.083C330.76 133.379 329.199 131.705 326.59 131.705C322.196 131.705 320.568 127.427 316.451 127.198C313.775 127.049 303.687 121.897 303.056 119.061C301.541 112.243 296.921 104.666 307.438 104.666" stroke="black" stroke-linecap="round"/>
<path d="M316.451 104.666C314.78 105.849 303.829 117.231 311.944 118.185C315.445 118.597 321.33 122.844 324.963 119.938C327.861 117.619 329.463 113.749 331.723 110.925C335.659 106.004 325.156 106.919 323.21 106.919" stroke="black" stroke-linecap="round"/>
<path d="M334.476 97.9063C337.053 100.331 340.884 104.666 344.616 104.666C348.938 104.666 349.556 109.277 351.375 112.552C355.806 120.527 345.742 120.413 345.742 128.325C345.742 131.597 344.768 135.003 347.996 136.712C351.011 138.308 356.489 137.147 358.761 138.965C361.343 141.03 364.164 140.112 366.522 142.47C369.505 145.453 369.434 148.396 371.029 151.984C372.153 154.513 379.742 168.181 373.782 169.884C370.149 170.922 368.646 170.108 366.021 173.389C364.79 174.929 363.123 174.165 361.515 175.016C359.807 175.921 359.563 177.88 358.135 179.022C349.442 185.976 369.364 188.035 372.781 188.035C380.957 188.035 388.554 186.372 388.554 197.048" stroke="black" stroke-linecap="round"/>
<path d="M384.047 190.288C382.024 196.865 381.794 202.808 381.794 209.566C381.794 215.593 376.552 215.959 375.16 220.832C374.052 224.707 375.034 230.194 375.034 234.226C375.034 239.563 371.819 239.285 370.653 243.364C369.63 246.946 367.995 250.926 366.022 254.38C363.745 258.364 363.768 260.833 363.768 265.771C363.768 274.784 363.768 283.797 363.768 292.81C363.768 300.691 361.983 307.631 356.508 313.715C351.659 319.102 349.845 332.275 343.489 336.247C341.076 337.755 339.425 341.569 337.23 344.008C333.468 348.189 329.414 351.824 325.464 355.775C317.632 363.606 313.296 367.091 302.931 370.546" stroke="black" stroke-linecap="round"/>
<path d="M320.957 370.546C320.957 378.168 322.598 384.065 331.097 384.065C337.772 384.065 338.983 378.992 338.983 372.799" stroke="black" stroke-linecap="round"/>
<path d="M352.502 21.2968C352.502 14.7212 354.484 8.26765 347.995 5.0236C344.147 3.09954 340.986 3.2711 336.729 3.2711C332.996 3.2711 329.189 3.05193 325.463 3.2711C324.038 3.35494 316.992 5.52431 322.083 5.52431C323.458 5.52431 326.09 5.01198 327.216 6.02503C327.724 6.48211 329.562 9.51803 328.593 9.90557C324.541 11.5264 317.466 10.0308 313.071 10.0308C308.797 10.0308 301.11 17.9291 297.924 20.7961C291.648 26.4447 294.089 13.4496 293.918 10.0308C293.715 5.96887 287.571 6.20828 284.905 5.0236C281.756 3.62389 277.536 1.1537 274.14 1.01788C267.895 0.76807 266.521 3.17993 261.247 5.52431C256.35 7.70052 251.166 11.4035 247.852 15.6638C245.114 19.1843 245.635 22.638 240.968 23.6752C238.107 24.311 232.407 25.3316 229.952 26.8047C227.56 28.2399 233.236 21.8288 233.081 19.0436C232.803 14.0394 227.41 14.6245 224.569 11.7833C222.622 9.83573 220.487 5.71126 217.309 5.52431C213.588 5.30547 212.032 3.2711 208.296 3.2711C204.165 3.2711 200.034 3.2711 195.903 3.2711C190.465 3.2711 189.465 4.27009 186.89 8.90414C185.434 11.5249 180.22 19.2674 181.382 22.1731C181.928 23.5376 188.045 18.4593 189.018 18.0422C191.093 17.1532 188.781 23.1729 185.764 23.5501C183.365 23.8499 183.936 24.8777 183.385 26.8047C182.858 28.6504 180.706 27.5964 179.505 28.5572C176.456 30.9961 173.574 33.5252 169.991 35.3169C166.739 36.9429 162.931 36.3681 160.478 38.8219C157.862 41.4377 154.891 43.9711 153.092 47.2089C148.799 54.9359 139.967 48.3355 133.94 48.3355C129.942 48.3355 125.746 47.5167 122.674 50.5887C120.247 53.0156 119.28 57.8098 117.041 59.6016C115.613 60.7436 115.369 62.7031 113.661 63.6073C111.893 64.543 109.865 64.2137 108.028 65.2346C104.379 67.2618 100.241 67.8079 96.7616 69.741C89.0771 74.0102 79.8624 78.7716 79.8624 88.8934C79.8624 92.6944 82.3269 94.1033 82.1156 97.9063C81.9593 100.721 79.1329 106.647 77.1085 108.672C71.515 114.265 71.2194 122.322 65.2165 128.325C63.2406 130.301 58.7786 135.326 57.3302 131.705C56.6805 130.08 55.1707 128.978 55.077 127.198C55.0322 126.346 55.4264 119.252 53.8252 119.938C50.4035 121.404 49.8016 129.577 50.6958 132.706C51.637 136 59.1823 132.52 61.336 134.458C64.1708 137.01 64.2934 141.764 64.0899 145.224C63.8961 148.518 57.81 150.475 55.5777 152.484C52.6691 155.102 52.8238 157.19 52.8238 160.996C52.8238 167.187 47.8134 166.452 42.8095 167.881C39.1222 168.935 38.5905 172.987 43.6857 172.137C48.2259 171.381 50.3515 162.794 53.9504 159.995C57.7507 157.039 59.5835 156.978 59.5835 160.996C59.5835 166.875 64.0158 165.943 65.8424 170.51C66.9171 173.197 70.3974 180.151 68.0956 183.028C65.9718 185.683 62.21 186.174 60.0842 188.536C58.4248 190.38 59.5835 196.911 59.5835 199.301C59.5835 203.771 57.3302 207.128 57.3302 211.694C57.3302 216.044 58.164 218.388 62.9633 219.455C68.7484 220.74 64.1452 221.833 60.7101 221.833C52.6296 221.833 48.3174 224.635 48.3174 233.099C48.3174 236.319 47.3502 241.43 48.8181 244.365C50.7703 248.27 55.5795 253.378 47.1908 253.378C42.7152 253.378 40.4701 252.632 38.1779 256.758C37.3885 258.179 36.0061 259.366 35.2988 260.639C33.5984 263.699 43.4002 260.302 43.8109 260.138" stroke="black" stroke-linecap="round"/>
<path d="M68.5967 221.833C72.911 226.148 82.116 231.094 82.116 237.606C82.116 240.135 81.1039 243.957 84.3692 244.365C88.4467 244.875 84.945 248.95 87.6238 250.624C93.4406 254.26 93.2154 266.432 84.3692 266.898C79.3271 267.163 67.8804 268.431 66.4686 274.784C65.8002 277.792 65.8158 282.862 66.4686 285.8C66.7209 286.935 72.8598 289.366 74.2297 290.431C75.4362 291.37 81.5044 292.674 76.4829 291.558C72.519 290.677 70.8499 288.771 70.8499 284.923C70.8499 277.534 69.3901 266.898 78.7361 266.898C86.3017 266.898 86.2349 273.829 86.6224 280.417C86.9485 285.961 99.2881 282.818 101.894 285.424C103.553 287.083 102.315 293.607 102.395 295.689C102.524 299.05 104.492 301.064 106.401 303.45C109.659 307.523 116.788 311.716 119.294 316.451V325.463C118.336 329.775 106.163 341.197 101.268 340.109" stroke="black" stroke-linecap="round"/>
<path d="M106.901 298.691C109.161 296.615 120.155 292.749 120.788 290.585C121.842 286.986 122.127 289.823 120.421 287.159C119.024 284.978 125.711 284.884 132.728 286.025C132.948 286.777 138.571 289.512 139.607 289.572C140.99 289.651 148.692 288.673 148.692 290.711C148.692 291.75 141.392 293.525 140.126 294.638C137.437 296.999 134.602 295.831 131.43 297.551C126.286 300.34 134.462 298.691 137.271 298.691C140.547 298.691 144.43 299.446 146.615 302.11C149.651 305.814 151.287 295.886 151.287 294.131C151.287 292.473 151.099 296.411 154.791 296.411C159.859 296.411 159.791 297.774 155.959 295.904C148.415 292.223 148.951 282.698 148.951 275.893" stroke="black" stroke-linecap="round"/>
<path d="M158.725 298.443C159.949 302.268 160.979 305.701 160.979 309.709" stroke="black" stroke-linecap="round"/>
<path d="M325.463 375.052C332.702 376.789 338.549 370.437 329.97 368.293" stroke="black" stroke-linecap="round"/>
<path d="M323.21 368.293C335.369 368.293 339.35 367.68 345.742 357.026" stroke="black" stroke-linecap="round"/>
<path d="M357.009 25.8033C346.842 29.5003 363.401 27.1015 367.148 29.1831C370.533 31.0639 375.659 34.6005 379.541 34.8162C387.088 35.2354 383.488 28.1257 387.552 25.8033C391.586 23.4984 395.223 23.2947 399.82 23.5501C403.292 23.743 409.393 26.0953 411.086 29.0579C411.388 29.587 417.813 36.068 417.345 36.068C412.39 36.068 405.467 35.0747 401.072 32.563C399.194 31.49 399.407 31.5501 401.072 33.6896C403.284 36.5336 405.774 38.8372 406.454 42.5773C407.363 47.5748 407.748 47.8355 411.086 51.5901C412.32 52.9781 412.742 56.695 414.591 57.2232C416.565 57.7871 419.184 57.3484 421.225 57.3484C430.101 57.3484 433.158 65.2972 433.618 73.1209C433.678 74.1472 434.806 75.3741 434.494 75.3741C432.195 75.3741 432.357 74.9241 433.618 76.5007C435.838 79.2753 438.264 81.5332 440.878 83.8863C444.96 87.5601 447.137 86.0027 447.137 92.2732C447.137 95.2793 447.288 94.572 446.011 92.2732C444.371 89.3221 443.93 88.8934 440.378 88.8934C429.342 88.8934 424.9 92.6343 422.477 103.539C421.368 108.529 430.638 114.9 434.745 118.185C436.181 119.334 435.237 121.056 436.372 122.191C437.925 123.744 440.193 121.803 440.378 124.945C440.684 130.154 437.154 131.705 443.758 131.705C448.421 131.705 447.046 137.235 448.89 140.717C451.162 145.008 453.86 145.224 458.403 145.224C461.057 145.224 468.693 147.477 466.039 147.477C462.793 147.477 456.871 152.512 454.398 154.737C452.167 156.745 449.391 159.028 449.391 162.123C449.391 168.467 451.518 167.756 457.277 167.756C461.167 167.756 464.332 167.188 466.916 170.51C468.654 172.745 458.436 172.263 457.277 172.263C454.075 172.263 449.593 175.574 449.391 179.022C449.225 181.834 448.107 189.811 449.891 192.041C453.1 196.052 451.432 197.51 448.389 200.553C444.556 204.386 449.198 207.291 449.391 210.567C449.675 215.406 448.235 218.555 447.012 222.835C445.873 226.821 440.378 221.619 440.378 228.593C440.378 232.451 441.437 237.606 446.011 237.606C447.876 237.606 449.783 237.49 451.644 237.606C455.292 237.834 446.647 243.283 445.886 243.865C443.566 245.638 441.731 248.066 439.376 249.748C437.674 250.964 434.46 244.678 433.743 243.364C432.238 240.604 432.011 232.11 428.11 233.225C425.656 233.926 426.858 242.266 426.858 244.366C426.858 250.818 426.986 249.713 432.366 251.25C436.146 252.33 426.19 255.632 424.605 255.632C418.541 255.632 416.262 256.508 413.84 262.391C411.816 267.306 421.727 261.894 422.227 263.643C423.38 267.68 420.099 269.765 420.099 273.657C420.099 277.829 422.352 280.23 422.352 283.797C422.352 289.809 419.15 290.616 415.592 295.063C414.22 296.779 406.588 297.098 404.827 295.689C400.154 291.951 400.581 295.582 399.695 299.569C398.777 303.697 391.443 304.587 394.813 307.956C399.228 312.372 391.293 305.686 389.68 305.328C385.221 304.337 384.9 311.505 388.554 311.962C394.59 312.717 386.933 319.449 385.299 320.85C381.863 323.795 381.794 328.093 381.794 332.241C381.794 334.494 381.794 336.747 381.794 339.001C381.794 340.92 380.437 346.116 381.794 344.759C388.697 337.856 386.524 323.566 375.034 325.481C370.139 326.297 368.275 335.991 368.275 340.127C368.275 342.169 368.713 344.788 368.15 346.762C367.425 349.296 365.791 346.177 364.77 345.886C352.618 342.414 373.826 360.722 358.26 353.647C354.543 351.957 349.803 352.281 345.743 352.52C341.654 352.76 344.831 359.735 341.236 361.533" stroke="black" stroke-linecap="round"/>
<path d="M302.931 370.546V386.318C314.949 392.327 342.588 404.795 357.009 406.597C375.034 408.85 431.365 424.623 453.897 431.383C476.429 438.142 503.468 451.662 501.215 480.953" stroke="black"/>
<path d="M122.674 435.889C131.687 532.777 390.807 507.992 326.59 398.711" stroke="black"/>
<path d="M351.375 234.208C353.629 236.461 350.249 242.094 345.742 244.348L344.616 245.474C341.236 243.972 334.701 239.841 335.603 235.335C336.729 229.702 349.122 231.955 351.375 234.208Z" fill="black"/>
<path d="M345.742 208.046C366.021 197.906 379.541 211.426 379.541 211.426M300.678 192.273C292.792 183.26 278.146 169.741 262.373 165.235C246.601 160.728 240.968 165.235 237.588 165.235" stroke="black" stroke-width="2" stroke-linecap="round"/>
</svg>
